<svg aria-hidden="true" style="position: absolute; width: 0; height: 0; overflow: hidden;" version="1.1" xmlns="http://www.w3.org/2000/svg" xmlns:xlink="http://www.w3.org/1999/xlink">
<defs>
<symbol id="arrow_back" viewBox="0 0 32 32">
<path fill="inherit" style="fill: var(--color1, inherit); stroke: var(--color1, inherit)" stroke="#fff" stroke-linejoin="miter" stroke-linecap="butt" stroke-miterlimit="4" stroke-width="1.3333" d="M16.010 6.249c0.114 0 0.212 0.035 0.322 0.145 0.11 0.115 0.145 0.217 0.145 0.332-0 0.116-0.035 0.214-0.145 0.324l-8.482 8.482h17.88c0.162 0 0.262 0.047 0.348 0.132 0.083 0.082 0.129 0.177 0.129 0.337s-0.046 0.255-0.129 0.337c-0.085 0.084-0.186 0.131-0.348 0.132h-17.88l8.474 8.473c0.11 0.11 0.147 0.212 0.148 0.335v0.001c0.001 0.089-0.019 0.167-0.074 0.246l-0.069 0.082c-0.107 0.108-0.204 0.143-0.323 0.142-0.126-0.001-0.23-0.041-0.341-0.151l-9.264-9.264c-0.071-0.072-0.105-0.128-0.121-0.167v-0.001c-0.020-0.048-0.031-0.102-0.031-0.165s0.012-0.116 0.031-0.163v-0.001c0.016-0.038 0.050-0.095 0.121-0.167l9.267-9.267c0.121-0.116 0.227-0.152 0.342-0.152z"></path>
</symbol>
<symbol id="arrow_forward" viewBox="0 0 32 32">
<path fill="inherit" style="fill: var(--color1, inherit); stroke: var(--color1, inherit)" stroke="#fff" stroke-linejoin="miter" stroke-linecap="butt" stroke-miterlimit="4" stroke-width="1.3333" d="M15.993 6.253c0.095 0.001 0.177 0.023 0.259 0.081l0.082 0.070 9.264 9.264c0.071 0.072 0.105 0.128 0.121 0.167v0.001c0.020 0.048 0.031 0.102 0.031 0.165s-0.012 0.116-0.031 0.163v0.001c-0.016 0.038-0.050 0.094-0.121 0.167l-9.272 9.264c-0.122 0.12-0.227 0.155-0.337 0.155-0.108-0-0.204-0.033-0.315-0.147l-0.007-0.007-0.069-0.081c-0.056-0.079-0.075-0.157-0.075-0.243s0.020-0.163 0.075-0.242l0.069-0.081 8.482-8.482h-17.88c-0.163-0-0.259-0.047-0.34-0.128h-0.001c-0.081-0.081-0.128-0.179-0.128-0.341s0.046-0.26 0.128-0.341h0.001c0.081-0.081 0.177-0.127 0.34-0.128h17.88l-8.474-8.474c-0.082-0.082-0.124-0.16-0.141-0.246l-0.008-0.090c-0.001-0.12 0.034-0.218 0.141-0.326l0.001-0.001c0.107-0.107 0.205-0.143 0.324-0.142z"></path>
</symbol>
<symbol id="arrow_top" viewBox="0 0 32 32">
<path fill="inherit" style="fill: var(--color1, inherit); stroke: var(--color1, inherit)" stroke="#fff" stroke-linejoin="miter" stroke-linecap="butt" stroke-miterlimit="4" stroke-width="1.3333" d="M6.027 15.785c0.001-0.095 0.023-0.177 0.081-0.259l0.070-0.082 9.264-9.264c0.072-0.071 0.128-0.105 0.167-0.121h0.001c0.049-0.020 0.102-0.031 0.165-0.031s0.116 0.011 0.163 0.031h0.001c0.038 0.016 0.094 0.050 0.167 0.121l9.264 9.272c0.12 0.122 0.155 0.227 0.155 0.337 0 0.108-0.033 0.204-0.147 0.315l-0.007 0.007-0.081 0.069c-0.080 0.056-0.157 0.076-0.244 0.076s-0.163-0.020-0.242-0.076l-0.081-0.069-8.482-8.482v17.88c0 0.163-0.047 0.259-0.128 0.34v0.001c-0.081 0.081-0.178 0.128-0.341 0.128s-0.26-0.047-0.341-0.128v-0.001c-0.081-0.081-0.128-0.177-0.128-0.34v-17.88l-8.474 8.474c-0.082 0.082-0.16 0.124-0.246 0.141l-0.090 0.008c-0.12 0.001-0.218-0.034-0.326-0.141l-0.001-0.001c-0.107-0.107-0.143-0.205-0.142-0.324z"></path>
</symbol>
<symbol id="call" viewBox="0 0 32 32">
<path fill="inherit" style="fill: var(--color1, inherit); stroke: var(--color1, inherit)" stroke="#fff" stroke-linejoin="miter" stroke-linecap="butt" stroke-miterlimit="4" stroke-width="1.3333" d="M5.492 4.46h4.667c0.245 0 0.415 0.073 0.555 0.204 0.125 0.117 0.229 0.27 0.307 0.471l0.069 0.217 0.887 4.018c0.044 0.309 0.034 0.556-0.013 0.751-0.042 0.175-0.124 0.319-0.257 0.445l-0.009 0.008-3.729 3.678 0.267 0.448c0.569 0.956 1.174 1.853 1.814 2.687 0.644 0.839 1.359 1.637 2.143 2.393 0.818 0.844 1.673 1.611 2.565 2.298 0.9 0.693 1.841 1.3 2.822 1.819l0.441 0.233 3.568-3.661c0.186-0.202 0.382-0.323 0.59-0.385 0.175-0.052 0.348-0.070 0.522-0.057l0.176 0.023 3.76 0.832c0.221 0.061 0.397 0.157 0.539 0.283l0.133 0.137c0.156 0.188 0.232 0.399 0.232 0.658v4.547c0 0.316-0.099 0.545-0.29 0.734-0.195 0.193-0.426 0.29-0.734 0.29-2.5 0-5.061-0.6-7.686-1.82-2.624-1.219-5.065-2.953-7.323-5.211-2.116-2.116-3.773-4.395-4.979-6.836l-0.236-0.491c-1.223-2.629-1.824-5.188-1.824-7.682 0-0.237 0.055-0.427 0.164-0.589l0.128-0.152c0.192-0.193 0.421-0.292 0.733-0.292zM5.422 6.1c0.041 0.951 0.191 1.948 0.444 2.991 0.255 1.051 0.655 2.21 1.194 3.475l0.385 0.905 3.648-3.628-0.077-0.355-0.758-3.556-0.113-0.527h-4.754l0.030 0.695zM26.595 21.836l-4.207-0.87-0.257 0.267-3.259 3.415 0.844 0.393c0.927 0.431 1.931 0.78 3.010 1.051 1.081 0.271 2.137 0.434 3.168 0.486l0.701 0.035v-4.777z"></path>
</symbol>
<symbol id="chevron_down" viewBox="0 0 32 32">
<path fill="inherit" stroke="inherit" style="stroke: var(--color1, inherit)" stroke-linejoin="miter" stroke-linecap="butt" stroke-miterlimit="4" stroke-width="1.3333" d="M26 11.803c-0.001 0.095-0.023 0.177-0.081 0.259l-0.070 0.082-9.264 9.264c-0.072 0.071-0.128 0.105-0.167 0.121h-0.001c-0.048 0.020-0.102 0.031-0.165 0.031s-0.116-0.011-0.163-0.031h-0.001c-0.038-0.016-0.094-0.050-0.167-0.121l-9.264-9.272c-0.12-0.122-0.155-0.227-0.155-0.337 0-0.108 0.033-0.204 0.147-0.315l0.006-0.007 0.081-0.069c0.079-0.056 0.157-0.075 0.243-0.076s0.163 0.020 0.242 0.076l0.081 0.069 7.348 7.348 1.602 1.577 1.604-1.577 7.34-7.34c0.082-0.082 0.16-0.124 0.246-0.141l0.090-0.008c0.12-0.001 0.218 0.034 0.326 0.141l0.001 0.001c0.107 0.107 0.143 0.205 0.142 0.324z"></path>
</symbol>
<symbol id="close" viewBox="0 0 32 32">
<path fill="inherit" style="fill: var(--color1, inherit); stroke: var(--color1, inherit)" stroke="#fff" stroke-linejoin="miter" stroke-linecap="butt" stroke-miterlimit="4" stroke-width="1.3333" d="M23.466 7.9c0.219 0 0.355 0.065 0.462 0.172s0.172 0.242 0.172 0.461c0 0.219-0.065 0.355-0.172 0.462l-7.005 7.005 7.005 7.004c0.107 0.107 0.172 0.243 0.172 0.462s-0.065 0.355-0.172 0.462-0.243 0.172-0.462 0.172c-0.219-0-0.355-0.065-0.462-0.172l-7.004-7.005-7.005 7.005c-0.107 0.107-0.243 0.172-0.462 0.172s-0.354-0.065-0.461-0.172c-0.107-0.107-0.172-0.243-0.172-0.462s0.065-0.355 0.172-0.462l7.004-7.004-7.004-7.005c-0.107-0.107-0.172-0.243-0.172-0.462s0.065-0.354 0.172-0.461 0.242-0.172 0.461-0.172c0.219 0 0.355 0.065 0.462 0.172l7.005 7.004 7.004-7.004c0.107-0.107 0.243-0.172 0.462-0.172z"></path>
</symbol>
<symbol id="eco" viewBox="0 0 32 32">
<path fill="inherit" style="fill: var(--color1, inherit)" d="M6.964 26.302c-0.995-1.021-1.771-2.202-2.328-3.542s-0.835-2.71-0.835-4.11c0-1.638 0.289-3.141 0.866-4.51s1.438-2.625 2.582-3.769c1.431-1.426 3.471-2.451 6.119-3.076s5.899-0.893 9.75-0.803c0.498 0.022 0.951 0.123 1.36 0.303s0.779 0.429 1.11 0.75c0.325 0.325 0.582 0.692 0.772 1.101s0.295 0.865 0.315 1.368c0.061 1.926 0.036 3.704-0.075 5.336s-0.328 3.117-0.65 4.456c-0.322 1.338-0.743 2.53-1.264 3.573s-1.148 1.934-1.883 2.671c-1.133 1.138-2.367 2.002-3.701 2.591s-2.758 0.883-4.272 0.883c-1.564 0-2.995-0.26-4.294-0.779s-2.49-1.334-3.571-2.443zM10.573 26.095c0.559 0.378 1.204 0.664 1.936 0.859s1.503 0.292 2.316 0.292c1.168 0 2.302-0.243 3.402-0.729s2.097-1.188 2.992-2.105c0.637-0.643 1.168-1.477 1.593-2.502s0.763-2.208 1.013-3.549c0.251-1.341 0.413-2.819 0.486-4.436s0.068-3.334-0.016-5.153c-2.073-0.050-3.932-0.023-5.577 0.079s-3.097 0.287-4.355 0.554-2.338 0.607-3.239 1.021c-0.9 0.414-1.632 0.913-2.194 1.497-0.917 0.934-1.623 1.933-2.117 2.996s-0.741 2.14-0.741 3.231c0 1.044 0.221 2.144 0.663 3.301s0.998 2.089 1.666 2.794c1.144-2.146 2.531-4.075 4.159-5.787s3.386-3.081 5.273-4.108c-1.912 1.672-3.465 3.478-4.66 5.417s-2.062 4.048-2.6 6.328z"></path>
</symbol>
<symbol id="facebook" viewBox="0 0 32 32">
<path fill="inherit" style="fill: var(--color1, inherit)" d="M29.333 16.405c0-7.409-5.969-13.415-13.333-13.415s-13.333 6.006-13.333 13.415c0 6.696 4.876 12.245 11.25 13.252v-9.374h-3.385v-3.878h3.385v-2.955c0-3.362 1.991-5.219 5.036-5.219 1.459 0 2.985 0.262 2.985 0.262v3.301h-1.681c-1.656 0-2.173 1.034-2.173 2.095v2.516h3.698l-0.591 3.878h-3.107v9.374c6.374-1.006 11.25-6.556 11.25-13.252z"></path>
</symbol>
<symbol id="floor_lamp" viewBox="0 0 32 32">
<path fill="inherit" style="fill: var(--color1, inherit)" d="M16.027 25.325c-0.322 0-0.591-0.109-0.806-0.327s-0.323-0.488-0.323-0.808v-9.523h-7.274c-0.391 0-0.703-0.157-0.936-0.472s-0.285-0.652-0.158-1.011l2.819-9.157c0.157-0.475 0.437-0.86 0.841-1.156s0.856-0.443 1.355-0.443h8.977c0.499 0 0.951 0.148 1.355 0.443s0.684 0.681 0.841 1.156l2.827 9.157c0.122 0.359 0.066 0.696-0.166 1.011s-0.545 0.472-0.936 0.472h-7.274v9.523c0 0.32-0.11 0.59-0.329 0.808s-0.49 0.327-0.812 0.327zM9.141 12.388h13.785l-2.371-7.689h-9.043l-2.371 7.689zM12.033 29.604c-0.32 0-0.59-0.11-0.808-0.329s-0.328-0.493-0.328-0.82c0-0.322 0.109-0.591 0.328-0.806s0.488-0.323 0.808-0.323h8c0.32 0 0.59 0.11 0.808 0.329s0.328 0.49 0.328 0.812c0 0.328-0.109 0.599-0.328 0.814s-0.488 0.323-0.808 0.323h-8z"></path>
</symbol>
<symbol id="instagram" viewBox="0 0 32 32">
<path fill="inherit" style="fill: var(--color1, inherit)" d="M15.998 6.161c3.206 0 3.585 0.014 4.846 0.071 1.172 0.052 1.804 0.248 2.226 0.412 0.558 0.216 0.961 0.478 1.378 0.895 0.422 0.422 0.679 0.82 0.9 1.378 0.164 0.422 0.361 1.059 0.412 2.226 0.056 1.266 0.071 1.645 0.071 4.847s-0.014 3.585-0.071 4.847c-0.052 1.172-0.248 1.804-0.412 2.227-0.216 0.558-0.478 0.961-0.895 1.377-0.422 0.422-0.82 0.679-1.378 0.9-0.422 0.164-1.060 0.361-2.226 0.412-1.266 0.056-1.645 0.071-4.847 0.071s-3.585-0.014-4.847-0.071c-1.172-0.052-1.804-0.248-2.226-0.412-0.558-0.216-0.961-0.478-1.378-0.895-0.422-0.422-0.679-0.82-0.9-1.378-0.164-0.422-0.361-1.060-0.412-2.226-0.056-1.266-0.071-1.645-0.071-4.847s0.014-3.585 0.071-4.847c0.052-1.172 0.248-1.804 0.412-2.226 0.216-0.558 0.478-0.961 0.895-1.378 0.422-0.422 0.82-0.679 1.378-0.9 0.422-0.164 1.059-0.361 2.226-0.412 1.261-0.056 1.641-0.071 4.847-0.071h0.001zM15.998 4.001c-3.258 0-3.665 0.014-4.945 0.071-1.275 0.056-2.151 0.262-2.91 0.558-0.792 0.309-1.462 0.717-2.127 1.387-0.67 0.666-1.078 1.336-1.387 2.123-0.295 0.764-0.502 1.636-0.558 2.91-0.056 1.285-0.071 1.692-0.071 4.949s0.014 3.665 0.071 4.945c0.056 1.275 0.262 2.151 0.558 2.91 0.31 0.792 0.717 1.462 1.387 2.127 0.665 0.665 1.336 1.078 2.123 1.383 0.764 0.295 1.636 0.502 2.91 0.558 1.279 0.056 1.687 0.071 4.945 0.071s3.666-0.014 4.945-0.071c1.275-0.056 2.151-0.262 2.91-0.558 0.787-0.305 1.458-0.717 2.123-1.383s1.078-1.336 1.383-2.123c0.295-0.764 0.502-1.635 0.558-2.91 0.056-1.279 0.071-1.687 0.071-4.945s-0.014-3.665-0.071-4.945c-0.056-1.275-0.262-2.151-0.558-2.91-0.295-0.797-0.703-1.467-1.373-2.133-0.665-0.665-1.336-1.078-2.123-1.383-0.764-0.295-1.635-0.502-2.91-0.558-1.284-0.061-1.692-0.075-4.949-0.075l-0.001 0.001z"></path>
<path fill="inherit" style="fill: var(--color1, inherit)" d="M15.998 9.836c-3.402 0-6.163 2.76-6.163 6.163s2.76 6.163 6.163 6.163c3.403 0 6.163-2.76 6.163-6.163s-2.76-6.163-6.163-6.163zM15.998 19.997c-2.208 0-3.998-1.79-3.998-3.998s1.79-3.998 3.998-3.998c2.208 0 3.998 1.79 3.998 3.998s-1.79 3.998-3.998 3.998z"></path>
<path fill="inherit" style="fill: var(--color1, inherit)" d="M23.843 9.592c0 0.795-0.644 1.439-1.439 1.439s-1.439-0.644-1.439-1.439 0.644-1.439 1.439-1.439c0.795 0 1.439 0.644 1.439 1.439z"></path>
</symbol>
<symbol id="location_on" viewBox="0 0 32 32">
<path fill="inherit" style="fill: var(--color1, inherit); stroke: var(--color1, inherit)" stroke="#fff" stroke-linejoin="miter" stroke-linecap="butt" stroke-miterlimit="4" stroke-width="1.3333" d="M16 3.126c2.699 0 5.071 0.939 7.141 2.844 2.031 1.869 3.066 4.38 3.066 7.607-0 1.314-0.289 2.627-0.879 3.944-0.605 1.351-1.363 2.645-2.277 3.883-0.922 1.248-1.923 2.413-3.004 3.495-1.097 1.098-2.121 2.069-3.069 2.914l-0.008 0.007-0.006 0.006c-0.121 0.114-0.26 0.197-0.423 0.25-0.195 0.063-0.378 0.093-0.551 0.093s-0.351-0.029-0.537-0.091c-0.154-0.051-0.285-0.131-0.4-0.243l-0.012-0.012-0.013-0.010c-0.953-0.844-1.979-1.815-3.076-2.913-1.081-1.081-2.082-2.247-3.004-3.495-0.914-1.237-1.672-2.531-2.273-3.881-0.587-1.318-0.875-2.631-0.875-3.945 0-3.227 1.035-5.738 3.064-7.607 2.067-1.904 4.436-2.844 7.135-2.844zM16 4.072c-2.58 0-4.787 0.892-6.576 2.671-1.799 1.79-2.686 4.088-2.686 6.835 0 1.893 0.792 3.945 2.264 6.138 1.473 2.194 3.661 4.633 6.543 7.314l0.449 0.418 0.453-0.411c2.95-2.677 5.161-5.118 6.604-7.322 1.438-2.196 2.209-4.248 2.21-6.137 0-2.747-0.887-5.045-2.686-6.835v-0.001c-1.789-1.779-3.995-2.669-6.575-2.669zM15.997 11.603c0.488 0 0.885 0.164 1.228 0.505s0.505 0.735 0.505 1.223c-0 0.488-0.164 0.883-0.504 1.223s-0.735 0.503-1.224 0.503c-0.489-0-0.884-0.164-1.223-0.501s-0.503-0.729-0.503-1.217c0-0.429 0.126-0.787 0.384-1.099l0.119-0.13c0.337-0.341 0.73-0.505 1.217-0.505z"></path>
</symbol>
<symbol id="mail" viewBox="0 0 32 32">
<path fill="inherit" style="fill: var(--color1, inherit); stroke: var(--color1, inherit)" stroke="#fff" stroke-linejoin="miter" stroke-linecap="butt" stroke-miterlimit="4" stroke-width="1.3333" d="M4.072 7.656v17.605h23.857v-17.077l-11.642 7.664c-0.080 0.042-0.15 0.076-0.211 0.1-0.004 0.001-0.027 0.008-0.075 0.008s-0.072-0.007-0.075-0.008c-0.061-0.024-0.131-0.058-0.212-0.1l-10.307-6.788v-0.533l10.595 6.94 12.841-8.387c0.021 0.104 0.033 0.211 0.033 0.323v17.19c0 0.428-0.15 0.793-0.482 1.124s-0.698 0.48-1.13 0.48h-22.523c-0.429 0-0.793-0.15-1.124-0.48l-0.116-0.125c-0.25-0.297-0.365-0.623-0.365-0.999v-17.19c0-0.118 0.012-0.231 0.035-0.34l0.902 0.591zM4.738 5.793h22.523c0.431 0 0.797 0.151 1.129 0.483h0.001c0.146 0.146 0.255 0.3 0.333 0.462h-25.444c0.078-0.163 0.187-0.317 0.333-0.464h0.001c0.331-0.332 0.694-0.482 1.122-0.482z"></path>
</symbol>
<symbol id="menu" viewBox="0 0 32 32">
<path fill="inherit" style="fill: var(--color1, inherit)" d="M4.936 24.295c-0.321 0-0.59-0.11-0.808-0.329s-0.327-0.493-0.327-0.82c0-0.322 0.109-0.591 0.327-0.807s0.488-0.323 0.808-0.323h22.127c0.321 0 0.591 0.11 0.812 0.329s0.331 0.49 0.331 0.812c0 0.328-0.11 0.599-0.331 0.814s-0.492 0.323-0.812 0.323h-22.127zM4.936 17.136c-0.321 0-0.59-0.11-0.808-0.329s-0.327-0.49-0.327-0.812c0-0.322 0.109-0.591 0.327-0.806s0.488-0.323 0.808-0.323h22.127c0.321 0 0.591 0.11 0.812 0.329s0.331 0.49 0.331 0.812c0 0.322-0.11 0.591-0.331 0.806s-0.492 0.323-0.812 0.323h-22.127zM4.936 9.984c-0.321 0-0.59-0.11-0.808-0.329s-0.327-0.493-0.327-0.82c0-0.322 0.109-0.591 0.327-0.806s0.488-0.323 0.808-0.323h22.127c0.321 0 0.591 0.11 0.812 0.329s0.331 0.49 0.331 0.812c0 0.328-0.11 0.599-0.331 0.815s-0.492 0.323-0.812 0.323h-22.127z"></path>
</symbol>
<symbol id="star" viewBox="0 0 32 32">
<path fill="inherit" stroke="inherit" style="stroke: var(--color2, inherit)" stroke-linejoin="miter" stroke-linecap="butt" stroke-miterlimit="4" stroke-width="3.2" d="M16.012 2.402l3.245 7.709c0.467 1.109 1.516 1.854 2.706 1.948l8.413 0.666-6.395 5.411c-0.916 0.776-1.322 2.002-1.039 3.175l1.956 8.105c-0.003 0.001-0.004 0.004-0.006 0.005-0.003-0.001-0.007-0.003-0.012-0.006l-7.214-4.353c-1.023-0.617-2.308-0.617-3.331 0l-7.214 4.353c-0.005 0.003-0.010 0.005-0.013 0.006-0.002-0.001-0.005-0.003-0.008-0.005l1.958-8.105c0.266-1.1-0.075-2.245-0.873-3.023l-0.166-0.152-6.397-5.411 8.414-0.666c1.19-0.094 2.239-0.839 2.706-1.948l3.244-7.709c0.004-0.001 0.009-0.002 0.014-0.002s0.009 0.001 0.012 0.002z"></path>
</symbol>
<symbol id="view_comfy" viewBox="0 0 32 32">
<path fill="inherit" style="fill: var(--color1, inherit)" d="M2.467 24.595v-17.19c0-0.627 0.222-1.163 0.667-1.609s0.98-0.67 1.604-0.67h22.523c0.627 0 1.163 0.223 1.609 0.67s0.67 0.983 0.67 1.609v17.19c0 0.624-0.223 1.159-0.67 1.604s-0.983 0.667-1.609 0.667h-22.523c-0.624 0-1.159-0.222-1.604-0.667s-0.667-0.98-0.667-1.604zM27.262 15v-7.595h-22.523v7.595h22.523zM12.783 24.595h14.479v-7.595h-14.479v7.595zM4.738 24.595h6.044v-7.595h-6.044v7.595z"></path>
</symbol>
</defs>
</svg>
